PLOT

Tolo Montana stars as Carlitos, a man looking to make a fresh start and life with
his young son. Unfortunately, when he's talked into "one last job," Carlitos soon
finds himself embroiled in a situation far beyond anything he'd bargained for.

Encoded By .......: BigPerm
Runtime ..........: 1h 34mn
File Size ........: 891 MB
Resolution .......: 640 x 352 
http://www.imdb.com/title/tt0316352/
Genre ............: Action,Comedy,Crime,Horror
Language .........: English
Subtitles ........: English when needed
Video
ID : 0
Format : MPEG-4 Visual
Format profile : Advanced Simple@L5
Format settings, BVOP : Yes
Format settings, QPel : No
Format settings, GMC : No warppoints
Format settings, Matrix : Default (H.263)
Muxing mode : Packed bitstream
Codec ID : XVID
Codec ID/Hint : XviD
Duration : 1h 34mn
Bit rate : 856 Kbps
Width : 640 pixels
Height : 352 pixels
Display aspect ratio : 16:9
Frame rate : 29.970 fps
Color space : YUV
Chroma subsampling : 4:2:0
Bit depth : 8 bits
Scan type : Progressive
Compression mode : Lossy
Bits/(Pixel*Frame) : 0.127
Stream size : 580 MiB (65%)
Writing library : XviD 64
Audio
ID : 1
Format : AC-3
Format/Info : Audio Coding 3
Mode extension : CM (complete main)
Codec ID : 2000
Duration : 1h 34mn
Bit rate mode : Constant
Bit rate : 448 Kbps
Channel(s) : 2 channels
Channel positions : Front: L R
Sampling rate : 48.0 KHz
Bit depth : 16 bits
Compression mode : Lossy
Stream size : 303 MiB (34%)
Alignment : Split accross interleaves
Interleave, duration : 33 ms (1.00 video frame)
Interleave, preload duration : 500 ms

